<svg aria-hidden="true" style="position: absolute; width: 0; height: 0; overflow: hidden;" version="1.1" xmlns="http://www.w3.org/2000/svg" xmlns:xlink="http://www.w3.org/1999/xlink">
<defs>
<symbol id="icon-menu" viewBox="0 0 46 32">
<path fill="#fff" style="fill: var(--color1, #fff)" d="M4.8 22.4h13.867c0.884 0 1.6 0.716 1.6 1.6s-0.716 1.6-1.6 1.6h-13.867c-0.884 0-1.6-0.716-1.6-1.6s0.716-1.6 1.6-1.6z"></path>
<path fill="#fff" style="fill: var(--color1, #fff)" d="M4.8 11.733h32c0.884 0 1.6 0.716 1.6 1.6s-0.716 1.6-1.6 1.6h-32c-0.884 0-1.6-0.716-1.6-1.6s0.716-1.6 1.6-1.6z"></path>
<path fill="#fff" style="fill: var(--color1, #fff)" d="M21.867 1.067h14.933c0.884 0 1.6 0.716 1.6 1.6s-0.716 1.6-1.6 1.6h-14.933c-0.884 0-1.6-0.716-1.6-1.6s0.716-1.6 1.6-1.6z"></path>
</symbol>
<symbol id="icon-cross" viewBox="0 0 32 32">
<path d="M29.835 0l-13.835 13.882-13.835-13.882-2.119 2.112 13.842 13.888-13.842 13.889 2.119 2.111 13.835-13.881 13.835 13.881 2.119-2.111-13.842-13.889 13.842-13.888z"></path>
</symbol>
<symbol id="icon-Internet-marketing" viewBox="0 0 32 32">
<path fill="#1074d8" style="fill: var(--color1, #1074d8)" d="M20.2 29.714c1.174 0 2.126-1.023 2.126-2.286s-0.952-2.286-2.126-2.286c-1.174 0-2.126 1.023-2.126 2.286s0.952 2.286 2.126 2.286z"></path>
<path fill="#1074d8" style="fill: var(--color1, #1074d8)" d="M2.126 20.571v2.286h4.875l-7.002 7.527 1.503 1.616 7.002-7.527v5.241h2.126v-9.143h-8.505z"></path>
<path fill="#1074d8" style="fill: var(--color1, #1074d8)" d="M20.2 6.857c1.174 0 2.126-1.023 2.126-2.286s-0.952-2.286-2.126-2.286c-1.174 0-2.126 1.023-2.126 2.286s0.952 2.286 2.126 2.286z"></path>
<path fill="#1074d8" style="fill: var(--color1, #1074d8)" d="M2.126 18.286c1.174 0 2.126-1.023 2.126-2.286s-0.952-2.286-2.126-2.286c-1.174 0-2.126 1.023-2.126 2.286s0.952 2.286 2.126 2.286z"></path>
<path fill="#1074d8" style="fill: var(--color1, #1074d8)" d="M27.641 11.429c-0.94 0.003-1.853 0.341-2.595 0.962s-1.272 1.488-1.506 2.467h-4.554c-0.151-0.645-0.431-1.246-0.822-1.761s-0.882-0.931-1.439-1.22c-0.557-0.288-1.166-0.441-1.784-0.448s-1.23 0.132-1.793 0.408l-3.378-4.537c0.556-0.784 0.858-1.742 0.861-2.728 0-0.904-0.249-1.788-0.717-2.54s-1.131-1.338-1.909-1.684c-0.777-0.346-1.632-0.437-2.457-0.26s-1.583 0.612-2.177 1.251c-0.595 0.639-1 1.454-1.164 2.341s-0.080 1.806 0.242 2.641c0.322 0.835 0.867 1.549 1.566 2.052s1.522 0.77 2.363 0.77c0.599-0.002 1.192-0.141 1.737-0.408l3.377 4.537c-0.556 0.784-0.858 1.742-0.861 2.728-0.003 1.112 0.372 2.188 1.054 3.024s1.626 1.375 2.653 1.515c1.027 0.141 2.066-0.127 2.921-0.753s1.469-1.566 1.725-2.644h4.554c0.2 0.826 0.612 1.575 1.188 2.162s1.294 0.988 2.072 1.159c0.778 0.171 1.585 0.103 2.329-0.195s1.396-0.813 1.88-1.489c0.485-0.676 0.784-1.484 0.863-2.333s-0.065-1.705-0.415-2.471c-0.351-0.766-0.894-1.41-1.568-1.86s-1.453-0.688-2.246-0.687zM6.379 6.857c-0.42 0-0.832-0.134-1.181-0.385s-0.622-0.608-0.783-1.026c-0.161-0.418-0.203-0.877-0.121-1.321s0.285-0.851 0.582-1.17c0.297-0.32 0.676-0.537 1.089-0.626s0.84-0.043 1.229 0.13c0.388 0.173 0.721 0.466 0.954 0.842s0.358 0.818 0.358 1.27c-0.001 0.606-0.225 1.187-0.623 1.616s-0.939 0.67-1.503 0.67zM14.884 18.286c-0.421 0-0.832-0.134-1.181-0.385s-0.622-0.608-0.783-1.026c-0.161-0.418-0.203-0.877-0.121-1.321s0.285-0.851 0.582-1.17 0.676-0.537 1.089-0.626c0.412-0.088 0.84-0.043 1.229 0.13s0.721 0.466 0.954 0.842c0.234 0.376 0.358 0.818 0.358 1.27-0.001 0.606-0.225 1.187-0.623 1.616s-0.939 0.669-1.503 0.67zM27.641 18.286c-0.421 0-0.832-0.134-1.181-0.385s-0.622-0.608-0.783-1.026c-0.161-0.418-0.203-0.877-0.121-1.321s0.284-0.851 0.582-1.17c0.297-0.32 0.676-0.537 1.089-0.626s0.84-0.043 1.229 0.13c0.388 0.173 0.721 0.466 0.954 0.842s0.358 0.818 0.358 1.27c-0.001 0.606-0.225 1.187-0.623 1.616s-0.939 0.669-1.503 0.67z"></path>
</symbol>
<symbol id="icon-WEB-developing" viewBox="0 0 32 32">
<path fill="#1074d8" style="fill: var(--color1, #1074d8)" d="M27.772 7.237l-7.090-6.671c-0.388-0.365-0.901-0.566-1.445-0.566h-17.174c-1.137 0-2.062 0.886-2.062 1.976v28.049c0 1.090 0.925 1.976 2.062 1.976h24.264c1.137 0 2.118-0.886 2.118-1.976v-21.377c0-0.527-0.281-1.040-0.673-1.41zM25.95 9.178h-6.854v-6.842l6.854 6.842zM2.439 29.663v-27.326h14.218v6.757c0 1.335 1.134 2.422 2.528 2.422h6.765v18.148l-23.511-0zM11.089 14.642l-3.6 4.702 3.557 4.834-1.994 1.346-4.567-6.207 4.637-6.057 1.967 1.382zM19.414 13.253l4.724 6.070-4.727 6.216-1.972-1.376 3.668-4.824-3.649-4.69 1.955-1.397zM14.352 11.222l2.406 0.381-2.727 15.799-2.406-0.381 2.727-15.799z"></path>
</symbol>
<symbol id="icon-Frame" viewBox="0 0 32 32">
<path fill="#1074d8" style="fill: var(--color1, #1074d8)" d="M24.333 0h-16.667c-1.326 0-2.598 0.506-3.536 1.406s-1.464 2.121-1.464 3.394v22.4c0 1.273 0.527 2.494 1.464 3.394s2.209 1.406 3.536 1.406h16.667c1.326 0 2.598-0.506 3.536-1.406s1.464-2.121 1.464-3.394v-22.4c0-1.273-0.527-2.494-1.464-3.394s-2.21-1.406-3.536-1.406zM26 27.2c0 0.424-0.176 0.831-0.488 1.131s-0.736 0.469-1.179 0.469h-16.667c-0.442 0-0.866-0.169-1.179-0.469s-0.488-0.707-0.488-1.131v-22.4c0-0.424 0.176-0.831 0.488-1.131s0.737-0.469 1.179-0.469h16.667c0.442 0 0.866 0.169 1.179 0.469s0.488 0.707 0.488 1.131v22.4z"></path>
<path fill="#1074d8" style="fill: var(--color1, #1074d8)" d="M16 25.6c1.381 0 2.5-1.075 2.5-2.4s-1.119-2.4-2.5-2.4c-1.381 0-2.5 1.075-2.5 2.4s1.119 2.4 2.5 2.4z"></path>
<path fill="#1074d8" style="fill: var(--color1, #1074d8)" d="M20.167 6.4h-8.333c-0.442 0-0.866 0.169-1.178 0.469s-0.488 0.707-0.488 1.131c0 0.424 0.176 0.831 0.488 1.131s0.736 0.469 1.178 0.469h8.333c0.442 0 0.866-0.169 1.178-0.469s0.488-0.707 0.488-1.131c0-0.424-0.176-0.831-0.488-1.131s-0.736-0.469-1.178-0.469z"></path>
</symbol>
<symbol id="icon-Site-boost" viewBox="0 0 32 32">
<path fill="#1074d8" style="fill: var(--color1, #1074d8)" d="M7.26 6.192c2.128-1.988 4.754-3.198 7.522-3.467v3.052c0 0.354 0.126 0.693 0.351 0.943s0.53 0.391 0.847 0.391c0.318 0 0.623-0.141 0.847-0.391s0.351-0.589 0.351-0.943v-3.052c3.244 0.321 6.277 1.927 8.546 4.527s3.622 6.019 3.815 9.636h-2.773c-0.318 0-0.623 0.14-0.847 0.391s-0.351 0.589-0.351 0.943c0 0.354 0.126 0.693 0.351 0.943s0.53 0.39 0.847 0.39h2.707c-0.415 4.11-2.274 7.552-5.062 10.076-0.247 0.223-0.403 0.547-0.436 0.899s0.062 0.704 0.263 0.978c0.201 0.274 0.491 0.449 0.808 0.485s0.633-0.069 0.879-0.293c3.557-3.223 5.864-7.811 6.024-13.306 0.011-0.092 0.013-0.185 0.006-0.277l0.003-0.34c0-9.818-7.154-17.777-15.979-17.777s-15.979 7.959-15.979 17.777c0 5.781 2.434 10.585 6.024 13.912 0.245 0.216 0.557 0.317 0.868 0.282s0.598-0.205 0.798-0.473c0.2-0.267 0.299-0.611 0.274-0.958s-0.17-0.67-0.406-0.899c-2.732-2.535-4.639-5.986-5.069-10.087h2.704c0.318 0 0.623-0.14 0.847-0.39s0.351-0.589 0.351-0.943-0.126-0.693-0.351-0.943c-0.225-0.25-0.53-0.391-0.847-0.391h-2.774c0.176-3.346 1.328-6.4 3.146-8.812l1.977 2.199c0.227 0.236 0.528 0.364 0.838 0.358s0.607-0.146 0.826-0.39c0.22-0.244 0.345-0.574 0.351-0.919s-0.11-0.68-0.321-0.932l-1.977-2.199zM23.586 8.238c-0.186-0.159-0.415-0.243-0.649-0.238s-0.46 0.098-0.641 0.265l-0.348 0.325c-1.256 1.174-2.509 2.353-3.757 3.538-1.048 0.995-2.12 2.027-2.977 2.867-0.371 0.363-0.738 0.73-1.101 1.102-0.237 0.236-0.461 0.488-0.671 0.754-0.248 0.339-0.432 0.731-0.541 1.151s-0.142 0.86-0.095 1.294c0.046 0.434 0.171 0.854 0.366 1.233s0.457 0.712 0.769 0.977c0.637 0.546 1.439 0.795 2.238 0.693s1.53-0.545 2.040-1.237c0.141-0.192 0.328-0.526 0.519-0.883 0.204-0.382 0.455-0.871 0.733-1.419 0.554-1.102 1.227-2.475 1.878-3.813 0.772-1.595 1.539-3.193 2.299-4.795l0.209-0.443c0.108-0.228 0.139-0.49 0.090-0.741s-0.178-0.475-0.361-0.631z"></path>
</symbol>
<symbol id="icon-SEO-optimization" viewBox="0 0 32 32">
<path fill="#1074d8" style="fill: var(--color1, #1074d8)" d="M2.296 12.72c-1.377 1.384-2.192 3.233-2.286 5.189s0.538 3.876 1.775 5.388c1.237 1.512 2.989 2.505 4.914 2.788s3.886-0.168 5.5-1.261l6.761 6.805c0.218 0.225 0.514 0.357 0.826 0.371s0.617-0.093 0.854-0.298c0.237-0.205 0.387-0.493 0.42-0.806s-0.053-0.626-0.242-0.876l-0.119-0.139-6.7-6.743c1.225-1.581 1.805-3.572 1.622-5.568s-1.116-3.847-2.608-5.175c-1.492-1.328-3.432-2.034-5.423-1.973s-3.885 0.883-5.294 2.3h0.002zM15.934 0c-7.556 0-13.879 5.306-15.491 12.416 0.942-1.203 2.161-2.158 3.551-2.782 1.51-2.866 3.986-5.097 6.984-6.29l-0.17 0.278c-0.855 1.428-1.543 3.215-2.026 5.243 0.793 0.080 1.574 0.262 2.327 0.544 1.004-4.201 2.896-7.010 4.825-7.010l0.183 0.008c2.011 0.185 3.953 3.386 4.855 7.987h-7.938c0.959 0.641 1.794 1.453 2.462 2.396l5.837 0.002c0.279 2.662 0.207 5.35-0.214 7.993h-4.204c-0.124 0.46-0.283 0.91-0.475 1.346l-0.205 0.435-0.194 0.366 0.251 0.251h4.313c-0.322 1.197-0.715 2.267-1.163 3.173l1.757 1.77c0.782-1.371 1.416-3.050 1.872-4.94l4.326-0.003c-1.422 2.289-3.486 4.103-5.932 5.211l0.358 0.357 0.199 0.224c0.349 0.473 0.548 0.999 0.6 1.523 2.749-1.284 5.076-3.332 6.706-5.902s2.496-5.557 2.495-8.607c0-8.831-7.114-15.989-15.888-15.989zM11.626 14.467c0.502 0.501 0.901 1.097 1.173 1.753s0.414 1.361 0.415 2.072c0.001 0.712-0.137 1.416-0.407 2.074s-0.666 1.255-1.166 1.758-1.094 0.902-1.747 1.173c-0.653 0.272-1.354 0.411-2.061 0.409s-1.407-0.144-2.059-0.418c-0.652-0.274-1.244-0.676-1.742-1.181-1-1.015-1.56-2.387-1.557-3.816s0.568-2.799 1.573-3.809 2.365-1.58 3.786-1.583c1.42-0.003 2.784 0.56 3.792 1.567zM23.728 12.792l5.335-0.002 0.013 0.048c0.238 1.012 0.365 2.065 0.365 3.149 0.002 1.638-0.292 3.263-0.866 4.796l-5.043 0.003c0.227-1.519 0.346-3.13 0.346-4.797 0-1.093-0.051-2.163-0.151-3.197zM20.889 3.343l0.037 0.013c3.252 1.306 5.876 3.829 7.32 7.039h-4.844c-0.497-2.802-1.366-5.24-2.513-7.050v-0.002z"></path>
</symbol>
<symbol id="icon-SEO-copyrighting" viewBox="0 0 32 32">
<path fill="#1074d8" style="fill: var(--color1, #1074d8)" d="M30.323 0.79l0.878 0.868c1.209 1.198 1.026 3.321-0.412 4.743l-18.098 17.903-5.864 2.122c-0.736 0.268-1.453-0.079-1.599-0.772-0.049-0.251-0.026-0.512 0.067-0.751l2.187-5.851 18.048-17.855c1.438-1.421 3.585-1.604 4.794-0.406v-0.001zM11.9 2.571c0.195 0 0.389 0.038 0.569 0.112s0.344 0.182 0.483 0.319c0.138 0.137 0.248 0.299 0.322 0.477s0.113 0.37 0.113 0.563c0 0.193-0.039 0.385-0.113 0.563s-0.184 0.341-0.322 0.477c-0.138 0.137-0.302 0.245-0.483 0.319s-0.374 0.112-0.569 0.112h-5.95c-0.789 0-1.546 0.31-2.104 0.862s-0.871 1.3-0.871 2.081v17.658c0 0.78 0.313 1.529 0.871 2.081s1.315 0.862 2.104 0.862h17.85c0.789 0 1.546-0.31 2.104-0.862s0.872-1.3 0.872-2.081v-5.886c0-0.39 0.157-0.765 0.436-1.041s0.657-0.431 1.052-0.431c0.395 0 0.773 0.155 1.052 0.431s0.436 0.65 0.436 1.041v5.886c0 1.561-0.627 3.058-1.743 4.162s-2.629 1.724-4.207 1.724h-17.85c-1.578 0-3.091-0.62-4.207-1.724s-1.743-2.601-1.743-4.162v-17.658c0-1.561 0.627-3.058 1.743-4.162s2.629-1.724 4.207-1.724h5.95z"></path>
</symbol>
<symbol id="icon-Vector" viewBox="0 0 38 32">
<path fill="#1074d8" style="fill: var(--color1, #1074d8)" d="M37.32 14.68c0.729 0.729 0.729 1.911 0 2.64l-11.2 11.2c-0.729 0.729-1.911 0.729-2.64 0s-0.729-1.911 0-2.64l8.013-8.013h-29.093c-1.031 0-1.867-0.836-1.867-1.867s0.836-1.867 1.867-1.867h29.093l-8.013-8.013c-0.729-0.729-0.729-1.911 0-2.64s1.911-0.729 2.64 0l11.2 11.2z"></path>
</symbol>
<symbol id="icon-backpack" viewBox="0 0 32 32">
<path fill="#1074d8" style="fill: var(--color1, #1074d8)" d="M12.19 6.095h6.095v-3.048h-6.095v3.048zM24.381 32c-2.108 0-3.905-0.743-5.39-2.228-1.486-1.486-2.229-3.283-2.229-5.391s0.743-3.905 2.229-5.391c1.485-1.485 3.282-2.228 5.39-2.228s3.905 0.743 5.391 2.228c1.485 1.486 2.228 3.283 2.228 5.391s-0.743 3.905-2.228 5.391c-1.486 1.485-3.283 2.228-5.391 2.228zM26.895 27.962l1.067-1.067-2.819-2.819v-4.267h-1.524v4.876l3.276 3.276zM14.743 28.952h-11.695c-0.838 0-1.555-0.298-2.152-0.895-0.597-0.597-0.896-1.315-0.896-2.153v-16.762c0-0.838 0.299-1.555 0.896-2.152 0.596-0.597 1.314-0.896 2.152-0.896h6.095v-3.048c0-0.838 0.299-1.556 0.896-2.153 0.596-0.596 1.314-0.894 2.152-0.894h6.095c0.838 0 1.556 0.298 2.153 0.894 0.596 0.597 0.894 1.315 0.894 2.153v3.048h6.095c0.838 0 1.556 0.299 2.153 0.896 0.596 0.596 0.894 1.314 0.894 2.152v6.514c-0.889-0.635-1.854-1.117-2.895-1.448s-2.108-0.495-3.2-0.495c-2.971 0-5.492 1.035-7.561 3.104-2.070 2.070-3.105 4.591-3.105 7.563 0 0.813 0.083 1.6 0.248 2.362s0.425 1.498 0.78 2.21z"></path>
</symbol>
<symbol id="icon-case" viewBox="0 0 38 32">
<path fill="#1074d8" style="fill: var(--color1, #1074d8)" d="M26.548 5.647h3.793v26.352h-22.756v-26.352h3.793v-1.882c0-0.998 0.4-1.956 1.111-2.662s1.676-1.103 2.682-1.103h7.585c1.006 0 1.971 0.397 2.682 1.103s1.111 1.664 1.111 2.662v1.882zM32.237 5.647h1.896c1.006 0 1.971 0.397 2.682 1.103s1.111 1.664 1.111 2.662v18.823c0 0.999-0.399 1.956-1.111 2.662s-1.676 1.103-2.682 1.103h-1.896v-26.352zM5.689 5.647v26.352h-1.896c-1.006 0-1.971-0.396-2.682-1.103s-1.111-1.663-1.111-2.662v-18.823c0-2.071 1.707-3.765 3.793-3.765h1.896zM15.17 3.765v1.882h7.585v-1.882h-7.585z"></path>
</symbol>
<symbol id="icon-smile" viewBox="0 0 32 32">
<path fill="#1074d8" style="fill: var(--color1, #1074d8)" d="M16 0c-8.822 0-16 7.178-16 16s7.178 16 16 16c8.822 0 16-7.178 16-16s-7.178-16-16-16zM16 28.8c-7.058 0-12.8-5.742-12.8-12.8s5.742-12.8 12.8-12.8c7.058 0 12.8 5.742 12.8 12.8s-5.742 12.8-12.8 12.8z"></path>
<path fill="#1074d8" style="fill: var(--color1, #1074d8)" d="M10.4 16c1.325 0 2.4-1.075 2.4-2.4s-1.075-2.4-2.4-2.4c-1.325 0-2.4 1.075-2.4 2.4s1.075 2.4 2.4 2.4z"></path>
<path fill="#1074d8" style="fill: var(--color1, #1074d8)" d="M21.589 15.978c1.319 0 2.389-1.069 2.389-2.389s-1.070-2.389-2.389-2.389c-1.319 0-2.389 1.069-2.389 2.389s1.070 2.389 2.389 2.389z"></path>
<path fill="#1074d8" style="fill: var(--color1, #1074d8)" d="M16 25.6c6.4 0 8-6.4 8-6.4h-16c0 0 1.6 6.4 8 6.4z"></path>
</symbol>
<symbol id="icon-people" viewBox="0 0 46 32">
<path fill="#1074d8" style="fill: var(--color1, #1074d8)" d="M13.119 4c0 2.207-1.79 4-3.993 4s-3.993-1.793-3.993-4c0-2.207 1.79-4 3.993-4s3.993 1.793 3.993 4zM4.563 15.264c-0.713 0.8-1.141 1.864-1.141 3.021s0.428 2.221 1.141 3.021v-6.043zM14.858 11.743c-2.117 1.879-3.451 4.628-3.451 7.685 0 2.45 0.856 4.7 2.281 6.464v1.536c0 1.264-1.020 2.286-2.281 2.286h-4.563c-1.262 0-2.281-1.021-2.281-2.286v-1.914c-2.695-1.286-4.563-4.036-4.563-7.228 0-4.421 3.572-8 7.985-8h2.281c1.711 0 3.294 0.536 4.591 1.45v0.007zM31.941 27.428v-1.536c1.426-1.764 2.281-4.014 2.281-6.464 0-3.057-1.333-5.807-3.451-7.693 1.298-0.914 2.88-1.45 4.591-1.45h2.281c4.413 0 7.985 3.579 7.985 8 0 3.193-1.868 5.943-4.563 7.228v1.914c0 1.264-1.020 2.286-2.281 2.286h-4.563c-1.262 0-2.281-1.021-2.281-2.286zM40.496 4c0 2.207-1.79 4-3.993 4s-3.993-1.793-3.993-4c0-2.207 1.79-4 3.993-4s3.993 1.793 3.993 4zM41.067 15.264v6.050c0.713-0.807 1.141-1.864 1.141-3.021s-0.428-2.221-1.141-3.021v-0.007zM22.815 9.143c-2.517 0-4.563-2.050-4.563-4.571s2.046-4.571 4.563-4.571c2.517 0 4.563 2.050 4.563 4.571s-2.046 4.571-4.563 4.571zM17.111 19.428c0 1.157 0.428 2.214 1.141 3.021v-6.043c-0.713 0.807-1.141 1.864-1.141 3.021zM27.378 16.407v6.050c0.713-0.807 1.141-1.864 1.141-3.021s-0.428-2.221-1.141-3.021v-0.007zM31.941 19.428c0 3.193-1.868 5.943-4.563 7.228v3.057c0 1.264-1.020 2.286-2.281 2.286h-4.563c-1.262 0-2.281-1.021-2.281-2.286v-3.057c-2.695-1.286-4.563-4.036-4.563-7.228 0-4.421 3.572-8 7.985-8h2.281c4.413 0 7.985 3.579 7.985 8z"></path>
</symbol>
<symbol id="icon-Vector-3" viewBox="0 0 43 32">
<path d="M37.333 0h-32c-2.2 0-3.98 1.8-3.98 4l-0.020 24c0 2.2 1.8 4 4 4h32c2.2 0 4-1.8 4-4v-24c0-2.2-1.8-4-4-4zM36.533 8.5l-14.14 8.84c-0.64 0.4-1.48 0.4-2.12 0l-14.14-8.84c-0.5-0.32-0.8-0.86-0.8-1.44 0-1.34 1.46-2.14 2.6-1.44l13.4 8.38 13.4-8.38c1.14-0.7 2.6 0.1 2.6 1.44 0 0.58-0.3 1.12-0.8 1.44z"></path>
</symbol>
<symbol id="icon-Vector-2" viewBox="0 0 32 32">
<path d="M27.419 20.852l-4.201-0.48c-1.009-0.116-2.002 0.232-2.713 0.943l-3.044 3.044c-4.681-2.382-8.519-6.203-10.901-10.901l3.060-3.060c0.711-0.711 1.059-1.704 0.943-2.713l-0.48-4.168c-0.198-1.671-1.604-2.928-3.292-2.928h-2.862c-1.869 0-3.424 1.555-3.308 3.424 0.877 14.126 12.174 25.407 26.284 26.284 1.869 0.116 3.424-1.439 3.424-3.308v-2.861c0.016-1.671-1.241-3.077-2.911-3.275z"></path>
</symbol>
<symbol id="icon-Vector-1" viewBox="0 0 32 32">
<path d="M16 16c4.42 0 8-3.58 8-8s-3.58-8-8-8c-4.42 0-8 3.58-8 8s3.58 8 8 8zM16 20c-5.34 0-16 2.68-16 8v2c0 1.1 0.9 2 2 2h28c1.1 0 2-0.9 2-2v-2c0-5.32-10.66-8-16-8z"></path>
</symbol>
<symbol id="icon-icon-send" viewBox="0 0 32 32">
<path fill="#fff" style="fill: var(--color1, #fff)" d="M32 0l-32 18 10.227 3.788 15.773-14.788-11.998 16.186 0.010 0.004-0.012-0.004v8.814l5.735-6.691 7.265 2.691 5-28z"></path>
</symbol>
</defs>
</svg>
